<?xml version="1.0" encoding="UTF-8"?>
<!-- Generator: Adobe Illustrator 19.0.0, SVG Export Plug-In . SVG Version: 6.00 Build 0)  -->
<svg version="1.1" id="Layer_1" xmlns="http://www.w3.org/2000/svg" xmlns:xlink="http://www.w3.org/1999/xlink" x="0px" y="0px" viewBox="0 0 270.7 60" style="enable-background:new 0 0 270.7 60;" xml:space="preserve">
<style type="text/css">
	.st0{fill:#413F54;}
	.st1{fill:none;stroke:#3BBFCF;stroke-width:2;}
	.st2{fill:#3BBFCF;stroke:#3BBFCF;stroke-width:2;}
</style>
<g>
	<g>
		<path class="st0" d="M84.8,21.3c1.4,1.2,2.1,3.1,2.1,5.5h-4.7c0-1.2-0.3-2.1-1-2.7c-0.7-0.6-1.6-1-2.9-1c-1,0-1.8,0.2-2.5,0.7    c-0.6,0.4-0.9,1-0.9,1.8c0,0.6,0.2,1,0.5,1.4c0.3,0.4,0.8,0.7,1.5,0.9c0.7,0.3,1.6,0.5,2.9,0.9c1.7,0.4,3.1,0.9,4.2,1.3    c1.1,0.4,1.9,1.1,2.6,2c0.7,0.9,1,2.1,1,3.6c0,1.4-0.4,2.6-1.1,3.7c-0.7,1.1-1.8,1.9-3.1,2.5c-1.3,0.6-2.8,0.9-4.5,0.9    c-2.8,0-5-0.7-6.6-2c-1.6-1.4-2.4-3.3-2.4-5.8h4.8c0,1.4,0.4,2.4,1.1,3.1c0.7,0.7,1.8,1,3.2,1c1.2,0,2.1-0.3,2.8-0.8    c0.7-0.5,1-1.2,1-2.1c0-0.6-0.2-1.1-0.5-1.5c-0.3-0.4-0.8-0.7-1.3-0.9c-0.6-0.2-1.5-0.5-2.8-0.8c-1.8-0.5-3.3-0.9-4.3-1.3    c-1.1-0.4-1.9-1.1-2.6-2c-0.7-0.9-1-2.1-1-3.6c0-1.3,0.3-2.4,1-3.4c0.7-1,1.7-1.8,2.9-2.3c1.3-0.6,2.7-0.8,4.3-0.8    C81.2,19.4,83.3,20,84.8,21.3z"/>
		<path class="st0" d="M89.6,24.3v-4.4H94v4.4H89.6z M89.6,42.2V26.3H94v15.9H89.6z"/>
		<path class="st0" d="M106.2,26.5v3.8c-0.6-0.1-1-0.2-1.4-0.2c-1.3,0-2.4,0.4-3.1,1.2c-0.7,0.8-1.1,2-1.1,3.6v7.3h-4.4V26.3h4v2.5    h0.1c0.5-0.9,1.1-1.5,1.9-1.9c0.7-0.4,1.6-0.6,2.5-0.6C105.3,26.3,105.8,26.3,106.2,26.5z"/>
		<path class="st0" d="M129.9,27.6c1,1.1,1.5,2.7,1.5,4.9v9.8H127v-9.3c0-1.2-0.2-2-0.7-2.6c-0.4-0.6-1.1-0.9-1.8-0.9    c-0.9,0-1.7,0.4-2.2,1.2c-0.5,0.8-0.8,2-0.8,3.5v8.2h-4.4v-9.6c0-1-0.2-1.8-0.6-2.4c-0.4-0.6-1.1-0.8-1.9-0.8    c-0.9,0-1.7,0.4-2.2,1.2c-0.5,0.8-0.8,2-0.8,3.5v8.2h-4.4V26.3h4.1v1.8h0.1c0.6-0.8,1.2-1.3,1.9-1.7c0.7-0.4,1.5-0.5,2.5-0.5    c1.1,0,2.1,0.2,2.9,0.7c0.8,0.5,1.4,1.1,1.9,2c0.6-0.9,1.3-1.6,2.1-2c0.8-0.5,1.8-0.7,2.9-0.7C127.5,25.9,128.9,26.5,129.9,27.6z"/>
		<path class="st0" d="M169.3,21.3c1.3,1.2,2,3.1,2,5.5h-2.1c0-3.7-1.9-5.5-5.7-5.5c-1.6,0-2.8,0.4-3.6,1.1c-0.9,0.7-1.3,1.7-1.3,3    c0,0.9,0.2,1.5,0.6,2.1c0.4,0.5,1,1,1.8,1.3c0.8,0.3,1.9,0.6,3.2,1c1.7,0.4,3,0.8,4.1,1.3c1,0.4,1.8,1.1,2.5,1.9    c0.6,0.8,0.9,1.9,0.9,3.3c0,1.9-0.7,3.5-2.1,4.6c-1.4,1.1-3.2,1.7-5.6,1.7c-2.5,0-4.5-0.7-5.9-2c-1.4-1.3-2.1-3.3-2.1-5.8h2    c0,2,0.5,3.5,1.6,4.5c1,1,2.5,1.5,4.4,1.5c1.8,0,3.2-0.4,4.1-1.2c1-0.8,1.4-1.9,1.4-3.3c0-0.9-0.2-1.6-0.6-2.1    c-0.4-0.5-1-1-1.8-1.3c-0.8-0.3-1.9-0.7-3.4-1c-1.7-0.4-3-0.8-4-1.3c-1-0.4-1.8-1.1-2.3-1.9c-0.6-0.8-0.9-1.9-0.9-3.2    c0-1.2,0.3-2.2,0.8-3.1c0.6-0.9,1.4-1.6,2.4-2.1c1.1-0.5,2.3-0.8,3.7-0.8C166.1,19.5,168,20.1,169.3,21.3z"/>
		<path class="st0" d="M186.2,28.1c1.3,1.5,1.9,3.5,1.9,6.1c0,2.6-0.6,4.6-1.9,6.1c-1.3,1.5-3.1,2.2-5.3,2.2c-2.3,0-4-0.7-5.3-2.2    c-1.3-1.5-1.9-3.5-1.9-6.1c0-2.6,0.6-4.6,1.9-6.1c1.3-1.5,3.1-2.2,5.3-2.2C183.1,25.9,184.9,26.6,186.2,28.1z M177,29.4    c-0.9,1.2-1.4,2.8-1.4,4.9c0,2.1,0.5,3.7,1.4,4.9c0.9,1.2,2.2,1.8,3.8,1.8c1.6,0,2.9-0.6,3.9-1.8c0.9-1.2,1.4-2.8,1.4-4.9    c0-2.1-0.5-3.7-1.4-4.9c-0.9-1.2-2.2-1.8-3.9-1.8C179.2,27.6,177.9,28.2,177,29.4z"/>
		<path class="st0" d="M190.8,42.2V19.9h1.9v22.3H190.8z"/>
		<path class="st0" d="M198,40.9c-1-1.1-1.5-2.7-1.5-4.9v-9.7h1.9v9.6c0,1.8,0.3,3.1,1,3.8c0.7,0.8,1.7,1.1,3,1.1    c0.8,0,1.6-0.2,2.3-0.6c0.7-0.4,1.3-1,1.7-1.8c0.4-0.8,0.6-1.7,0.6-2.8v-9.4h1.9v15.9h-1.9V40h-0.1c-0.5,0.8-1.2,1.4-2,1.8    c-0.9,0.4-1.8,0.7-2.9,0.7C200.4,42.5,199,42,198,40.9z"/>
		<path class="st0" d="M219.1,40.5v1.7c-0.5,0.1-0.9,0.2-1.4,0.2c-1.4,0-2.4-0.3-3-1c-0.6-0.7-0.9-1.8-0.9-3.3V27.9h-2.9v-1.6h2.9    v-3.7h1.9v3.7h3.2v1.6h-3.2v10c0,0.9,0.2,1.6,0.5,2c0.3,0.4,0.9,0.6,1.8,0.6C218.4,40.6,218.7,40.6,219.1,40.5z"/>
		<path class="st0" d="M221.3,24.2v-4.3h1.9v4.3H221.3z M221.3,42.2V26.3h1.9v15.9H221.3z"/>
		<path class="st0" d="M238.6,28.1c1.3,1.5,1.9,3.5,1.9,6.1c0,2.6-0.6,4.6-1.9,6.1c-1.3,1.5-3.1,2.2-5.3,2.2c-2.3,0-4-0.7-5.3-2.2    c-1.3-1.5-1.9-3.5-1.9-6.1c0-2.6,0.6-4.6,1.9-6.1c1.3-1.5,3.1-2.2,5.3-2.2C235.5,25.9,237.3,26.6,238.6,28.1z M229.4,29.4    c-0.9,1.2-1.4,2.8-1.4,4.9c0,2.1,0.5,3.7,1.4,4.9c0.9,1.2,2.2,1.8,3.8,1.8c1.7,0,2.9-0.6,3.9-1.8c0.9-1.2,1.4-2.8,1.4-4.9    c0-2.1-0.5-3.7-1.4-4.9c-0.9-1.2-2.2-1.8-3.9-1.8C231.6,27.6,230.3,28.2,229.4,29.4z"/>
		<path class="st0" d="M254.4,27.6c1,1.1,1.5,2.7,1.5,4.9v9.7h-1.9v-9.6c0-1.8-0.3-3.1-1-3.8c-0.7-0.8-1.7-1.1-3-1.1    c-0.8,0-1.6,0.2-2.3,0.6c-0.7,0.4-1.3,1-1.7,1.8c-0.4,0.8-0.6,1.7-0.6,2.8v9.4h-1.9V26.3h1.9v2.2h0.1c0.5-0.8,1.2-1.4,2.1-1.8    c0.9-0.4,1.8-0.7,2.9-0.7C252,25.9,253.4,26.5,254.4,27.6z"/>
		<path class="st0" d="M268.6,27.3c1,0.9,1.6,2.3,1.6,4h-1.9c0-1.2-0.4-2.1-1.1-2.8c-0.7-0.7-1.7-1-3-1c-1.1,0-2,0.2-2.6,0.7    c-0.7,0.5-1,1.1-1,1.9c0,0.6,0.1,1.1,0.4,1.4c0.3,0.3,0.7,0.6,1.1,0.8c0.5,0.2,1.3,0.4,2.5,0.7c1.4,0.3,2.5,0.6,3.2,0.9    c0.8,0.3,1.4,0.7,2,1.4c0.6,0.6,0.8,1.5,0.8,2.6c0,1.4-0.5,2.5-1.6,3.4c-1.1,0.9-2.5,1.3-4.3,1.3c-2,0-3.6-0.5-4.7-1.5    c-1.1-1-1.7-2.4-1.7-4.3h2c0,1.3,0.4,2.3,1.2,3c0.8,0.7,1.9,1.1,3.3,1.1c1.2,0,2.2-0.3,2.9-0.8c0.7-0.5,1.1-1.2,1.1-2    c0-0.7-0.2-1.2-0.5-1.6c-0.3-0.4-0.8-0.7-1.4-0.9c-0.6-0.2-1.6-0.5-2.9-0.8c-1.2-0.3-2.2-0.6-2.9-0.8c-0.7-0.2-1.3-0.7-1.7-1.3    c-0.5-0.6-0.7-1.4-0.7-2.4c0-1.3,0.5-2.4,1.6-3.2c1-0.8,2.4-1.2,4-1.2C266.1,25.9,267.6,26.4,268.6,27.3z"/>
		<path class="st0" d="M147.3,37.8v-2.9v-2.8c0-2.1-0.6-3.7-1.7-4.7c-1.1-1.1-2.9-1.6-5.1-1.6c-2.2,0-3.8,0.5-5,1.5    c-1.2,1-1.8,2.3-1.9,3.9h4.3c0-0.8,0.3-1.3,0.7-1.8c0.4-0.4,1.1-0.6,1.9-0.6c0.8,0,1.5,0.2,1.9,0.7c0.5,0.5,0.7,1.2,0.7,2.1v0.6    c-1.3,0.1-2.6,0.2-4,0.4c-2.2,0.4-3.8,0.9-4.7,1.8c-0.9,0.8-1.4,1.9-1.4,3.3c0,1.4,0.5,2.6,1.5,3.5c1,0.9,2.3,1.4,3.9,1.4    c2,0,3.6-0.7,4.7-2v1.6h4.2C147.3,42.2,147.3,39.6,147.3,37.8z M142.8,37.3c-0.1,0.4-0.4,0.8-0.7,1.2c-0.3,0.3-0.7,0.5-1.1,0.7    c-0.4,0.2-0.9,0.2-1.4,0.2c-0.8,0-1.3-0.2-1.7-0.5c-0.4-0.4-0.6-0.9-0.6-1.5c0-0.6,0.2-1.1,0.6-1.4c0.4-0.3,1.1-0.6,2-0.8    c0.9-0.1,1.9-0.3,3.2-0.3v0.6C143,36.3,143,36.9,142.8,37.3z"/>
	</g>
	<g>
		<path class="st1" d="M58.9,30c0,16-13,28.9-29,28.9C14,58.9,1,45.9,1,30C1,14,14,1,30,1C45.9,1,58.9,14,58.9,30z"/>
		<path class="st2" d="M52.5,11.8c0,0-8.9-8.5-19-7.5c-5.7,0.5-4.8,3.9-1.2,7.5c3.6,3.6,16,11.6,20,16.9c4.5,6,7,14.9-4.3,23.9    c-5.8,4.6-12,6.3-17.4,6.4c-4.7,0.1-8.7-1-10.1-1.5c-2.5-0.9-6.4-3-8.7-4.9c-4-3.3-6.2-6.6-5.6-6c3.2,3.4,7.3,7.6,15.8,9    c4.4,0.7,6.7-1,7.4-2.7c1.5-3.3-1.5-6-2.9-7.2C22,42.1,16.3,41.4,7.7,30.5c-7.9-10-1.5-20.2,7.9-25.6c4.4-2.6,8.6-3.5,13-3.8    C35.6,0.7,41.8,2.7,47,6.4C48.6,7.5,51,9.8,52.5,11.8z"/>
	</g>
</g>
</svg>